<?xml version="1.0" encoding="UTF-8"?>
<svg version="1.1" xmlns="http://www.w3.org/2000/svg" width="1024" height="1024">
<path d="M0 0 C2.88861283 0.32257381 5.77800037 0.63792917 8.66735458 0.95378113 C16.43681437 1.80394132 24.20364159 2.67605982 31.96900177 3.56283569 C35.28470888 3.9413493 38.60078237 4.3164591 41.91693878 4.69100952 C94.91218099 10.72353584 146.92249179 21.7510422 195.42572784 44.46835327 C198.35228306 45.83510513 201.28927997 47.17416017 204.23383331 48.5015564 C219.06971687 55.24921093 232.00452625 63.76561307 244.67523956 73.9859314 C245.19408722 74.40036499 245.71293488 74.81479858 246.24750519 75.24179077 C262.01285552 87.905117 275.33478453 101.8301885 286.16352081 118.8999939 C287.04203441 120.28305589 287.92094973 121.66586277 288.80023956 123.0484314 C289.24246857 123.74653931 289.68469757 124.44464722 290.14032745 125.16390991 C294.67897936 132.21253195 299.75748602 138.82310669 304.92963409 145.41586304 C309.58093079 151.38236603 313.71453174 157.54242693 317.67523956 163.9859314 C318.41532257 165.18572632 318.41532257 165.18572632 319.17035675 166.40975952 C320.11306835 167.93900422 321.05569684 169.46830015 321.99823761 170.99765015 C328.43621381 181.37771647 335.56715766 190.84053461 343.36273956 200.2203064 C344.18773956 201.21546265 345.01273956 202.2106189 345.86273956 203.2359314 C346.96682159 204.54304077 346.96682159 204.54304077 348.09320831 205.8765564 C349.67523956 207.9859314 349.67523956 207.9859314 349.67523956 209.9859314 C350.39324738 210.25147827 351.11125519 210.51702515 351.85102081 210.7906189 C363.80868227 215.85153785 374.6537834 224.87969084 382.67523956 234.9859314 C383.17539581 235.61112671 383.67555206 236.23632202 384.19086456 236.88046265 C396.53501514 252.83040457 403.87794931 270.39257246 407.92523956 290.0484314 C408.08838654 290.82630005 408.25153351 291.6041687 408.41962433 292.40560913 C410.46647102 302.96010491 410.71182493 313.63715071 410.8136673 324.35775757 C410.97412617 336.0169704 412.11633098 346.32452487 415.45355988 357.48544312 C417.44818388 364.38540889 418.25014124 370.88613975 418.61273956 378.0484314 C419.87483534 401.38917012 425.25534918 424.50666606 430.67499542 447.18588257 C432.99951236 457.04980235 434.64340171 466.90537421 435.67523956 476.9859314 C435.76708527 477.87151733 435.85893097 478.75710327 435.95355988 479.66952515 C437.27144298 493.43079147 435.86303254 504.11433104 431.6183548 517.2587738 C430.66148335 521.04029545 430.44603758 524.1747146 430.47992706 528.06576538 C430.48430786 529.07284294 430.48430786 529.07284294 430.48877716 530.1002655 C430.49634774 531.55102448 430.50853668 533.00176537 430.52490997 534.45245171 C430.55082575 536.78478032 430.56357387 539.11687589 430.57318878 541.44932556 C430.59972386 547.26403668 430.64713329 553.07853663 430.69599152 558.89309692 C431.61238625 669.55880134 431.61238625 669.55880134 400.36273956 701.6109314 C395.77296248 706.43885729 393.61791371 711.22372554 391.21430206 717.38046265 C385.76623855 730.14331194 376.23515802 740.93073741 367.55023956 751.5953064 C356.48309232 765.25073808 347.10055993 779.34673934 339.80023956 795.3609314 C332.61377124 811.06284805 322.87052577 824.36088245 311.30023956 837.1109314 C310.77575226 837.69254028 310.25126495 838.27414917 309.71088409 838.87338257 C308.40775076 840.28429544 307.04592582 841.64055011 305.67523956 842.9859314 C305.01523956 842.9859314 304.35523956 842.9859314 303.67523956 842.9859314 C303.34523956 843.9759314 303.01523956 844.9659314 302.67523956 845.9859314 C300.90029852 847.11678848 299.10469663 848.21529329 297.30023956 849.2984314 C288.54953414 855.23561556 285.35138498 864.89543484 281.04291534 874.16757202 C266.93050705 903.24890751 245.97261549 919.63250222 215.92523956 930.3609314 C214.9752005 930.70897827 214.02516144 931.05702515 213.04633331 931.4156189 C194.4875319 938.0863049 175.68538495 943.0956985 156.41043854 947.21264648 C134.73283336 951.85587117 113.2739898 957.03891103 91.86273956 962.7984314 C71.89490875 968.16472151 51.92799313 973.05323798 31.66303253 977.15365601 C28.02065792 977.90102171 24.39883432 978.72790309 20.77513885 979.56048584 C13.01405313 981.33570726 5.35919617 982.76452781 -2.57476044 983.5484314 C-3.68262909 983.66428589 -4.79049774 983.78014038 -5.93193817 983.89950562 C-30.98845292 986.43700354 -56.14000598 988.47577432 -81.32476044 988.9859314 C-82.25610809 989.00784546 -83.18745575 989.02975952 -84.14702606 989.05233765 C-146.39020621 990.36088383 -221.93978088 983.96425004 -277.77349091 954.33358765 C-280.90728461 952.67822485 -284.05478438 951.04983224 -287.20366669 949.4234314 C-288.45903833 948.77499495 -289.71440941 948.12655744 -290.96977997 947.4781189 C-291.60434113 947.15037476 -292.23890228 946.82263062 -292.89269257 946.48495483 C-294.81745262 945.48971009 -296.74096794 944.49209973 -298.66411591 943.4937439 C-305.20948378 940.09756245 -311.77192489 936.74421861 -318.38726044 933.4859314 C-331.31009982 927.05044774 -342.6377714 919.25729471 -354.15435028 910.60848999 C-357.77000808 907.90549092 -361.43448845 905.27176237 -365.09819794 902.6343689 C-367.56753006 900.80619669 -370.00089549 898.99775794 -372.32476044 896.9859314 C-372.32476044 896.3259314 -372.32476044 895.6659314 -372.32476044 894.9859314 C-372.87647919 894.7693689 -373.42819794 894.5528064 -373.99663544 894.3296814 C-377.08324076 892.54815081 -379.2315095 890.11911555 -381.57476044 887.4859314 C-382.06218719 886.94476685 -382.54961395 886.40360229 -383.05181122 885.84603882 C-387.34286138 881.04314078 -391.38380569 876.07982503 -395.32476044 870.9859314 C-396.28785169 869.77593733 -397.25143156 868.5663321 -398.21538544 867.35702515 C-405.05592887 858.68763395 -411.16407271 849.73373079 -417.01372528 840.36972046 C-423.09946591 830.6561694 -429.66522765 821.3117499 -436.32476044 811.9859314 C-437.24157579 810.69697464 -438.15825291 809.40791955 -439.07476044 808.1187439 C-442.30460312 803.58320694 -445.549618 799.05877882 -448.80913544 794.54452515 C-450.91415955 791.62537846 -453.00057382 788.69366476 -455.07476044 785.75253296 C-455.90318952 784.58172967 -456.73647946 783.4143496 -457.57476044 782.25057983 C-463.53283887 773.95116276 -468.17749285 765.47078713 -472.42534637 756.18051147 C-475.46411593 749.59710383 -478.89614973 743.35633179 -482.57476044 737.1109314 C-486.90769885 729.66650604 -490.72267548 722.46684551 -493.52935028 714.29208374 C-494.11850989 712.5839187 -494.72582564 710.88199222 -495.34282684 709.1836853 C-501.00982516 693.50916591 -504.6468398 678.22123941 -507.23149872 661.80770874 C-507.46670342 660.31498414 -507.70221414 658.82230772 -507.93804169 657.3296814 C-508.05280853 656.60310333 -508.16757538 655.87652527 -508.28582001 655.12792969 C-509.28292781 648.95632477 -510.67700972 642.92352852 -512.19976044 636.8609314 C-515.23077474 624.47032264 -517.32843176 611.94334111 -519.38726044 599.3609314 C-519.56112274 598.30129181 -519.73498505 597.24165222 -519.91411591 596.14990234 C-521.7028331 585.16535757 -523.38137973 574.18700265 -524.59429169 563.12265015 C-524.68761276 562.27308243 -524.78093384 561.42351471 -524.87708282 560.54820251 C-525.06064789 558.87126744 -525.24420615 557.19433162 -525.42775726 555.51739502 C-527.34240109 538.13823764 -531.23441084 522.13302654 -536.58321381 505.50939941 C-546.64070701 474.13452959 -546.69004009 446.63495062 -538.11260223 414.92108154 C-535.15011095 403.92033446 -532.88505313 392.86949183 -530.82082367 381.66793823 C-527.89868079 365.86913143 -524.566542 350.86046774 -518.32476044 335.9859314 C-517.69126678 334.43156372 -517.69126678 334.43156372 -517.04497528 332.84579468 C-509.87654443 315.38252253 -501.1798787 299.07142347 -491.32476044 282.9859314 C-490.81525848 282.15319702 -490.30575653 281.32046265 -489.78081512 280.4624939 C-478.56362562 262.29477593 -465.62966104 244.84387877 -450.25054169 229.97421265 C-447.11130857 226.73309772 -444.37391589 223.17001679 -441.55132294 219.65390015 C-438.94746966 216.53384438 -436.1477673 213.7163428 -433.23101044 210.8921814 C-431.27786491 208.93903587 -429.48918616 206.90179146 -427.69976044 204.7984314 C-424.80937952 201.43507906 -421.7767322 198.76251738 -418.32476044 195.9859314 C-414.8098584 192.64677446 -411.6989046 189.10591455 -408.65679169 185.34140015 C-408.21722137 184.89409546 -407.77765106 184.44679077 -407.32476044 183.9859314 C-406.66476044 183.9859314 -406.00476044 183.9859314 -405.32476044 183.9859314 C-405.05687714 183.39586304 -404.78899384 182.80579468 -404.51299286 182.19784546 C-403.31302561 179.96408682 -402.05864031 178.42319715 -400.31304169 176.5953064 C-399.71942841 175.96753296 -399.12581512 175.33975952 -398.51421356 174.69296265 C-397.89481903 174.04714233 -397.2754245 173.40132202 -396.63726044 172.7359314 C-392.34076095 168.22253021 -388.136803 163.66063536 -384.0510788 158.95516968 C-381.24890704 155.75868865 -378.35697201 152.64927191 -375.44976044 149.5484314 C-374.49951996 148.53341553 -374.49951996 148.53341553 -373.5300827 147.49789429 C-367.86031759 141.48036702 -362.03265821 135.62846407 -356.13579559 129.83383179 C-352.43940208 126.18403147 -348.96241143 122.45790208 -345.62285614 118.47982788 C-344.03411182 116.65144223 -342.31582692 115.09013868 -340.44976044 113.5484314 C-337.60999128 111.13516749 -334.9369488 108.6442172 -332.32476044 105.9859314 C-329.21085669 102.82986647 -325.98752932 99.89255707 -322.62163544 97.0093689 C-320.36041076 95.01733763 -318.17726982 92.95484818 -315.99346161 90.87875366 C-307.92555414 83.25477118 -299.27208585 76.54305216 -290.32476044 69.9859314 C-289.76321259 69.5724646 -289.20166473 69.1589978 -288.62310028 68.73300171 C-278.63943103 61.43879801 -267.98248033 55.22872732 -257.32476044 48.9859314 C-256.44126923 48.46531128 -255.55777802 47.94469116 -254.64751434 47.40829468 C-217.73678155 25.70599508 -175.29425324 9.63306121 -132.98540497 2.46395874 C-129.62064505 1.85942581 -126.30241352 1.10000477 -122.97222137 0.33065796 C-83.3066168 -8.71064463 -40.11070667 -4.49704604 0 0 Z " fill="#404040" transform="translate(564.3247604370117,21.014068603515625)"/>
<path d="M0 0 C2.88861283 0.32257381 5.77800037 0.63792917 8.66735458 0.95378113 C16.43681437 1.80394132 24.20364159 2.67605982 31.96900177 3.56283569 C35.28470888 3.9413493 38.60078237 4.3164591 41.91693878 4.69100952 C94.91218099 10.72353584 146.92249179 21.7510422 195.42572784 44.46835327 C198.35228306 45.83510513 201.28927997 47.17416017 204.23383331 48.5015564 C219.06971687 55.24921093 232.00452625 63.76561307 244.67523956 73.9859314 C245.19408722 74.40036499 245.71293488 74.81479858 246.24750519 75.24179077 C262.01285552 87.905117 275.33478453 101.8301885 286.16352081 118.8999939 C287.04203441 120.28305589 287.92094973 121.66586277 288.80023956 123.0484314 C289.24246857 123.74653931 289.68469757 124.44464722 290.14032745 125.16390991 C294.67897936 132.21253195 299.75748602 138.82310669 304.92963409 145.41586304 C309.58093079 151.38236603 313.71453174 157.54242693 317.67523956 163.9859314 C318.41532257 165.18572632 318.41532257 165.18572632 319.17035675 166.40975952 C320.11306835 167.93900422 321.05569684 169.46830015 321.99823761 170.99765015 C328.43621381 181.37771647 335.56715766 190.84053461 343.36273956 200.2203064 C344.18773956 201.21546265 345.01273956 202.2106189 345.86273956 203.2359314 C346.96682159 204.54304077 346.96682159 204.54304077 348.09320831 205.8765564 C349.67523956 207.9859314 349.67523956 207.9859314 349.67523956 209.9859314 C350.39324738 210.25147827 351.11125519 210.51702515 351.85102081 210.7906189 C363.80868227 215.85153785 374.6537834 224.87969084 382.67523956 234.9859314 C383.17539581 235.61112671 383.67555206 236.23632202 384.19086456 236.88046265 C396.53501514 252.83040457 403.87794931 270.39257246 407.92523956 290.0484314 C408.08838654 290.82630005 408.25153351 291.6041687 408.41962433 292.40560913 C410.46647102 302.96010491 410.71182493 313.63715071 410.8136673 324.35775757 C410.97412617 336.0169704 412.11633098 346.32452487 415.45355988 357.48544312 C417.44818388 364.38540889 418.25014124 370.88613975 418.61273956 378.0484314 C419.87483534 401.38917012 425.25534918 424.50666606 430.67499542 447.18588257 C432.99951236 457.04980235 434.64340171 466.90537421 435.67523956 476.9859314 C435.76708527 477.87151733 435.85893097 478.75710327 435.95355988 479.66952515 C437.27144298 493.43079147 435.86303254 504.11433104 431.6183548 517.2587738 C430.66148335 521.04029545 430.44603758 524.1747146 430.47992706 528.06576538 C430.48430786 529.07284294 430.48430786 529.07284294 430.48877716 530.1002655 C430.49634774 531.55102448 430.50853668 533.00176537 430.52490997 534.45245171 C430.55082575 536.78478032 430.56357387 539.11687589 430.57318878 541.44932556 C430.59972386 547.26403668 430.64713329 553.07853663 430.69599152 558.89309692 C431.61238625 669.55880134 431.61238625 669.55880134 400.36273956 701.6109314 C395.77296248 706.43885729 393.61791371 711.22372554 391.21430206 717.38046265 C385.76623855 730.14331194 376.23515802 740.93073741 367.55023956 751.5953064 C356.48309232 765.25073808 347.10055993 779.34673934 339.80023956 795.3609314 C332.61377124 811.06284805 322.87052577 824.36088245 311.30023956 837.1109314 C310.77575226 837.69254028 310.25126495 838.27414917 309.71088409 838.87338257 C308.40775076 840.28429544 307.04592582 841.64055011 305.67523956 842.9859314 C305.01523956 842.9859314 304.35523956 842.9859314 303.67523956 842.9859314 C303.34523956 843.9759314 303.01523956 844.9659314 302.67523956 845.9859314 C300.90029852 847.11678848 299.10469663 848.21529329 297.30023956 849.2984314 C288.54953414 855.23561556 285.35138498 864.89543484 281.04291534 874.16757202 C266.93050705 903.24890751 245.97261549 919.63250222 215.92523956 930.3609314 C214.9752005 930.70897827 214.02516144 931.05702515 213.04633331 931.4156189 C194.4875319 938.0863049 175.68538495 943.0956985 156.41043854 947.21264648 C134.73283336 951.85587117 113.2739898 957.03891103 91.86273956 962.7984314 C71.89490875 968.16472151 51.92799313 973.05323798 31.66303253 977.15365601 C28.02065792 977.90102171 24.39883432 978.72790309 20.77513885 979.56048584 C13.01405313 981.33570726 5.35919617 982.76452781 -2.57476044 983.5484314 C-3.68262909 983.66428589 -4.79049774 983.78014038 -5.93193817 983.89950562 C-30.98845292 986.43700354 -56.14000598 988.47577432 -81.32476044 988.9859314 C-82.25610809 989.00784546 -83.18745575 989.02975952 -84.14702606 989.05233765 C-146.39020621 990.36088383 -221.93978088 983.96425004 -277.77349091 954.33358765 C-280.90728461 952.67822485 -284.05478438 951.04983224 -287.20366669 949.4234314 C-288.45903833 948.77499495 -289.71440941 948.12655744 -290.96977997 947.4781189 C-291.60434113 947.15037476 -292.23890228 946.82263062 -292.89269257 946.48495483 C-294.81745262 945.48971009 -296.74096794 944.49209973 -298.66411591 943.4937439 C-305.20948378 940.09756245 -311.77192489 936.74421861 -318.38726044 933.4859314 C-331.31009982 927.05044774 -342.6377714 919.25729471 -354.15435028 910.60848999 C-357.77000808 907.90549092 -361.43448845 905.27176237 -365.09819794 902.6343689 C-367.56753006 900.80619669 -370.00089549 898.99775794 -372.32476044 896.9859314 C-372.32476044 896.3259314 -372.32476044 895.6659314 -372.32476044 894.9859314 C-372.87647919 894.7693689 -373.42819794 894.5528064 -373.99663544 894.3296814 C-377.08324076 892.54815081 -379.2315095 890.11911555 -381.57476044 887.4859314 C-382.06218719 886.94476685 -382.54961395 886.40360229 -383.05181122 885.84603882 C-387.34286138 881.04314078 -391.38380569 876.07982503 -395.32476044 870.9859314 C-396.28785169 869.77593733 -397.25143156 868.5663321 -398.21538544 867.35702515 C-405.05592887 858.68763395 -411.16407271 849.73373079 -417.01372528 840.36972046 C-423.09946591 830.6561694 -429.66522765 821.3117499 -436.32476044 811.9859314 C-437.24157579 810.69697464 -438.15825291 809.40791955 -439.07476044 808.1187439 C-442.30460312 803.58320694 -445.549618 799.05877882 -448.80913544 794.54452515 C-450.91415955 791.62537846 -453.00057382 788.69366476 -455.07476044 785.75253296 C-455.90318952 784.58172967 -456.73647946 783.4143496 -457.57476044 782.25057983 C-463.53283887 773.95116276 -468.17749285 765.47078713 -472.42534637 756.18051147 C-475.46411593 749.59710383 -478.89614973 743.35633179 -482.57476044 737.1109314 C-486.90769885 729.66650604 -490.72267548 722.46684551 -493.52935028 714.29208374 C-494.11850989 712.5839187 -494.72582564 710.88199222 -495.34282684 709.1836853 C-501.00982516 693.50916591 -504.6468398 678.22123941 -507.23149872 661.80770874 C-507.46670342 660.31498414 -507.70221414 658.82230772 -507.93804169 657.3296814 C-508.05280853 656.60310333 -508.16757538 655.87652527 -508.28582001 655.12792969 C-509.28292781 648.95632477 -510.67700972 642.92352852 -512.19976044 636.8609314 C-515.23077474 624.47032264 -517.32843176 611.94334111 -519.38726044 599.3609314 C-519.56112274 598.30129181 -519.73498505 597.24165222 -519.91411591 596.14990234 C-521.7028331 585.16535757 -523.38137973 574.18700265 -524.59429169 563.12265015 C-524.68761276 562.27308243 -524.78093384 561.42351471 -524.87708282 560.54820251 C-525.06064789 558.87126744 -525.24420615 557.19433162 -525.42775726 555.51739502 C-527.34240109 538.13823764 -531.23441084 522.13302654 -536.58321381 505.50939941 C-546.64070701 474.13452959 -546.69004009 446.63495062 -538.11260223 414.92108154 C-535.15011095 403.92033446 -532.88505313 392.86949183 -530.82082367 381.66793823 C-527.89868079 365.86913143 -524.566542 350.86046774 -518.32476044 335.9859314 C-517.69126678 334.43156372 -517.69126678 334.43156372 -517.04497528 332.84579468 C-509.87654443 315.38252253 -501.1798787 299.07142347 -491.32476044 282.9859314 C-490.81525848 282.15319702 -490.30575653 281.32046265 -489.78081512 280.4624939 C-478.56362562 262.29477593 -465.62966104 244.84387877 -450.25054169 229.97421265 C-447.11130857 226.73309772 -444.37391589 223.17001679 -441.55132294 219.65390015 C-438.94746966 216.53384438 -436.1477673 213.7163428 -433.23101044 210.8921814 C-431.27786491 208.93903587 -429.48918616 206.90179146 -427.69976044 204.7984314 C-424.80937952 201.43507906 -421.7767322 198.76251738 -418.32476044 195.9859314 C-414.8098584 192.64677446 -411.6989046 189.10591455 -408.65679169 185.34140015 C-408.21722137 184.89409546 -407.77765106 184.44679077 -407.32476044 183.9859314 C-406.66476044 183.9859314 -406.00476044 183.9859314 -405.32476044 183.9859314 C-405.05687714 183.39586304 -404.78899384 182.80579468 -404.51299286 182.19784546 C-403.31302561 179.96408682 -402.05864031 178.42319715 -400.31304169 176.5953064 C-399.71942841 175.96753296 -399.12581512 175.33975952 -398.51421356 174.69296265 C-397.89481903 174.04714233 -397.2754245 173.40132202 -396.63726044 172.7359314 C-392.34076095 168.22253021 -388.136803 163.66063536 -384.0510788 158.95516968 C-381.24890704 155.75868865 -378.35697201 152.64927191 -375.44976044 149.5484314 C-374.49951996 148.53341553 -374.49951996 148.53341553 -373.5300827 147.49789429 C-367.86031759 141.48036702 -362.03265821 135.62846407 -356.13579559 129.83383179 C-352.43940208 126.18403147 -348.96241143 122.45790208 -345.62285614 118.47982788 C-344.03411182 116.65144223 -342.31582692 115.09013868 -340.44976044 113.5484314 C-337.60999128 111.13516749 -334.9369488 108.6442172 -332.32476044 105.9859314 C-329.21085669 102.82986647 -325.98752932 99.89255707 -322.62163544 97.0093689 C-320.36041076 95.01733763 -318.17726982 92.95484818 -315.99346161 90.87875366 C-307.92555414 83.25477118 -299.27208585 76.54305216 -290.32476044 69.9859314 C-289.76321259 69.5724646 -289.20166473 69.1589978 -288.62310028 68.73300171 C-278.63943103 61.43879801 -267.98248033 55.22872732 -257.32476044 48.9859314 C-256.44126923 48.46531128 -255.55777802 47.94469116 -254.64751434 47.40829468 C-217.73678155 25.70599508 -175.29425324 9.63306121 -132.98540497 2.46395874 C-129.62064505 1.85942581 -126.30241352 1.10000477 -122.97222137 0.33065796 C-83.3066168 -8.71064463 -40.11070667 -4.49704604 0 0 Z M-140.3088913 64.29083252 C-143.78587598 65.48974375 -147.2871976 66.61343483 -150.78569794 67.74765015 C-186.60131005 79.39926813 -186.60131005 79.39926813 -220.32476044 95.9859314 C-221.37599091 96.59888062 -222.42722137 97.21182983 -223.51030731 97.84335327 C-237.66209637 106.13091931 -251.62459692 114.55339548 -264.32476044 124.9859314 C-264.9025827 125.45772827 -265.48040497 125.92952515 -266.075737 126.4156189 C-275.14632605 133.87780444 -283.68875179 141.90316624 -292.20561981 149.98446655 C-294.41718148 152.07322031 -296.64263418 154.14627451 -298.87163544 156.21640015 C-299.6259787 156.91926147 -300.38032196 157.6221228 -301.15752411 158.34628296 C-302.59524187 159.68561316 -304.03533557 161.02239961 -305.47832489 162.35604858 C-309.40167843 166.02401897 -312.98892562 169.83154555 -316.48271942 173.90805054 C-320.63292961 178.58961965 -325.19383964 182.8907643 -329.65288544 187.2749939 C-334.43478008 192.00809369 -338.94717027 196.87874287 -343.32476044 201.9859314 C-344.82046271 203.65645601 -346.3198031 205.32373971 -347.82476044 206.9859314 C-350.54765015 209.99907839 -353.23788742 213.03307209 -355.88726044 216.1109314 C-358.9265586 219.60859239 -362.1693707 222.85278781 -365.47319794 226.09921265 C-367.11432714 227.77150253 -368.60690856 229.47487308 -370.07476044 231.2984314 C-372.04315651 233.64957115 -373.89033168 235.18265084 -376.32476044 236.9859314 C-376.32476044 237.6459314 -376.32476044 238.3059314 -376.32476044 238.9859314 C-376.90612762 239.24116577 -377.48749481 239.49640015 -378.08647919 239.7593689 C-384.23092981 243.12648494 -388.88695925 249.52967386 -393.41069794 254.78671265 C-395.67630612 257.38985021 -397.99779596 259.93751864 -400.32476044 262.4859314 C-403.76317594 266.25576044 -407.15621559 270.0555774 -410.49272919 273.9156189 C-411.84492837 275.44369047 -413.22730991 276.94517752 -414.62554169 278.4312439 C-426.92979582 291.55833306 -436.09478211 306.62069677 -445.32476044 321.9859314 C-445.75176239 322.68975952 -446.17876434 323.39358765 -446.61870575 324.1187439 C-453.70480208 335.86843954 -459.18309182 348.27920825 -464.32476044 360.9859314 C-464.60867645 361.6857312 -464.89259247 362.38553101 -465.185112 363.10653687 C-468.61542696 371.78627321 -470.24612752 380.49278157 -471.7385788 389.66244507 C-474.5495608 406.82797079 -478.47289455 423.81299848 -483.34429169 440.5093689 C-489.25986123 461.48489437 -482.0692289 482.56496289 -475.58672333 502.54696655 C-471.88914773 513.98389309 -469.18895947 525.29893477 -467.76226044 537.2359314 C-467.64946747 538.13182983 -467.5366745 539.02772827 -467.42046356 539.95077515 C-466.89470913 544.16268499 -466.3899818 548.37484274 -465.93950653 552.59555054 C-464.63715308 564.63434665 -462.68972291 576.54914531 -460.65825653 588.48422241 C-460.08126796 591.88507511 -459.51712119 595.28789193 -458.95366669 598.69100952 C-456.84684107 611.22674077 -454.41530833 623.6171453 -451.38158417 635.96443176 C-449.6020397 643.3045866 -448.4311117 650.62549199 -447.44976044 658.1109314 C-444.88735298 675.99952508 -439.21694837 692.69988007 -430.61333466 708.5718689 C-429.02098518 711.55503517 -427.48795559 714.56624807 -425.95366669 717.5796814 C-425.03072357 719.38630558 -424.1069308 721.19249218 -423.18273163 722.99847412 C-422.29081959 724.74258471 -421.40125672 726.48789601 -420.51177216 728.23324585 C-415.19470765 738.52893397 -409.12666276 748.09888489 -402.26226044 757.4234314 C-395.6717563 766.46363172 -389.24333489 775.61084824 -382.85405731 784.79403687 C-381.55472878 786.6563248 -380.24756638 788.51249028 -378.93413544 790.36483765 C-375.52575329 795.20600265 -372.24767903 800.07963941 -369.12163544 805.10702515 C-362.27206316 816.11400163 -355.18556922 826.43333631 -346.75737762 836.28866577 C-344.65257094 838.78229496 -342.65566865 841.35969885 -340.63726044 843.9234314 C-332.26303789 854.06303058 -321.98108754 861.27109212 -311.23101044 868.65682983 C-308.88506567 870.29250136 -306.6124764 872.02014442 -304.32476044 873.7359314 C-298.18661044 878.03263639 -291.29513491 880.88916028 -284.50200653 883.98300171 C-281.14300504 885.53029685 -277.82252084 887.14978534 -274.51226044 888.7984314 C-273.86764862 889.11916626 -273.2230368 889.43990112 -272.5588913 889.77035522 C-268.79055838 891.67085373 -265.0842167 893.66006822 -261.40288544 895.72421265 C-260.54928436 896.202052 -259.69568329 896.67989136 -258.81621552 897.17221069 C-257.18600702 898.0905568 -255.56031968 899.01700734 -253.94072723 899.95394897 C-241.0285897 907.24777674 -227.31814894 911.44695034 -213.01226044 914.9859314 C-212.15870972 915.19903961 -211.305159 915.41214783 -210.4257431 915.63171387 C-191.06106551 920.41887139 -171.54222666 923.41352214 -151.7410202 925.70596313 C-149.44852551 925.97159093 -147.15716068 926.24558973 -144.86577606 926.52059937 C-109.14173657 930.72594595 -73.07016504 929.89451624 -37.26226044 927.2359314 C-36.18075714 927.15761078 -35.09925385 927.07929016 -33.98497772 926.99859619 C-22.39543033 926.136991 -10.92442319 924.91717328 0.54633331 923.0328064 C1.50274216 922.87604431 2.459151 922.71928223 3.44454193 922.55776978 C9.11309255 921.57409682 14.59923458 920.24539762 20.13466644 918.68243408 C23.55243961 917.74544543 26.96914131 917.048052 30.44867706 916.37265015 C31.86670044 916.09102401 33.28466731 915.80911325 34.70258331 915.52694702 C36.85734614 915.10252404 39.01252793 914.68071038 41.16889191 914.26449585 C50.76517647 912.40403698 60.12488314 910.09423401 69.50728607 907.3494873 C79.77421514 904.34862406 90.12297696 901.68798583 100.48773956 899.0484314 C101.50416534 898.78858459 102.52059113 898.52873779 103.56781769 898.26101685 C116.39196255 894.98806289 129.23048794 891.86929594 142.17523956 889.1109314 C159.9740462 885.30385562 177.29581591 881.00804359 194.48773956 874.9859314 C196.23232452 874.3810791 196.23232452 874.3810791 198.01215363 873.76400757 C210.52698671 869.25000047 218.37161107 864.85387392 224.67523956 852.9859314 C225.07903839 852.24262573 225.48283722 851.49932007 225.89887238 850.73348999 C235.53394619 832.94807999 244.15077748 814.64551064 252.908638 796.41903687 C267.05372308 767.09952952 284.55566299 741.91447811 305.75727081 717.37265015 C308.69291948 713.97342631 311.59239141 710.54448541 314.48773956 707.1109314 C318.50279861 702.35947369 322.5318164 697.62621044 326.67523956 692.9859314 C327.39066925 692.17768921 328.10609894 691.36944702 328.84320831 690.53671265 C333.30569115 685.57609219 337.86681014 680.76829183 342.62055206 676.08358765 C343.50267365 675.21314819 344.38479523 674.34270874 345.29364777 673.44589233 C347.05333847 671.71665935 348.81983594 669.9943184 350.59394073 668.27987671 C362.81380629 656.28015675 366.68537093 645.74716972 368.67523956 628.9859314 C368.80435982 627.91341094 368.80435982 627.91341094 368.93608856 626.8192234 C370.33807663 614.91585691 370.93962607 603.19971 370.82556915 591.2177639 C370.7993588 588.43540293 370.7868444 585.65323885 370.77729034 582.87077332 C370.75477609 576.97156892 370.71626923 571.07253226 370.67523956 565.1734314 C370.62762855 558.30568326 370.58702249 551.43803007 370.56336212 544.57015419 C370.55061584 541.85893705 370.52562413 539.14802543 370.49994659 536.43690491 C370.41760721 522.59585388 371.42251195 509.69566699 375.87055206 496.49765015 C377.66519643 488.66568273 376.61002616 480.98520801 375.17523956 473.1734314 C374.92000519 471.73652954 374.92000519 471.73652954 374.65961456 470.27059937 C373.04867785 461.47711627 371.12783616 452.7549221 369.2065506 444.02548218 C364.9545761 424.7023218 361.11192071 405.5783294 359.80023956 385.7984314 C359.05607514 375.01198229 356.67112293 365.24098435 353.5414505 354.92391968 C352.27345555 350.62317243 351.14630892 346.28787291 350.00727081 341.95150757 C347.55881584 332.63682039 344.96795393 323.46171549 341.78852081 314.3687439 C340.77991718 311.30400445 339.94387736 308.2582263 339.16376495 305.13119507 C336.09727633 292.84225338 330.22088053 283.45880598 323.13471222 273.1265564 C321.60439954 270.88202953 320.09759181 268.62290796 318.59320831 266.3609314 C311.93678829 256.40981705 304.85737604 247.01970564 297.20111847 237.82089233 C286.54623924 225.00776076 277.146292 211.42169304 268.34711456 197.2671814 C263.23540891 189.07284409 257.53980583 181.51764611 251.62689972 173.8868103 C247.51454207 168.53444847 243.68284513 163.12751879 240.17523956 157.3609314 C239.77724152 156.70826294 239.37924347 156.05559448 238.96918488 155.38314819 C238.21647521 154.14657642 237.46402004 152.90984968 236.71186066 151.67294312 C220.67780186 125.57889076 195.22734935 108.89314924 167.67523956 96.9859314 C166.45237608 96.45283028 165.22955809 95.91962478 164.00678253 95.38632202 C150.167792 89.37495819 136.35283904 83.60654186 121.67523956 79.9859314 C120.13827423 79.59462036 120.13827423 79.59462036 118.57025909 79.19540405 C82.04726754 69.91619921 45.25670478 64.52850388 7.84241486 60.52462769 C5.00319767 60.21948779 2.16455062 59.90921701 -0.67410183 59.59887409 C-3.46321044 59.29429811 -6.25255646 58.99194562 -9.04198647 58.6903286 C-10.96549975 58.48222977 -12.88889927 58.2730802 -14.81229401 58.06388855 C-27.0352016 56.7577622 -39.14991092 55.83017731 -51.44585419 55.74765015 C-52.65699387 55.73790161 -53.86813354 55.72815308 -55.11597443 55.71810913 C-58.99810653 55.6932415 -62.88005624 55.68047806 -66.76226044 55.6734314 C-67.75108971 55.67148458 -67.75108971 55.67148458 -68.75989532 55.66949844 C-93.49813945 55.63256319 -116.75470216 56.06019146 -140.3088913 64.29083252 Z " fill="#808080" transform="translate(564.3247604370117,21.014068603515625)"/>
<path d="M0 0 C6.32353513 5.1993511 6.32353513 5.1993511 7.37109375 9.7265625 C7.77564571 14.14551469 7.50852858 17.16521845 5.1796875 21.00390625 C0.58882226 26.39282512 -4.55552027 30.1915186 -10.70703125 33.64453125 C-15.46574258 36.84448359 -17.78853573 41.22109631 -20.3125 46.25 C-25.68893894 56.40421658 -32.07694534 65.57059562 -40.375 73.55078125 C-46.12506368 79.13974401 -48.55644385 83.86091526 -50.37695312 91.70629883 C-51.94441582 98.08909911 -54.377967 104.01881344 -56.9375 110.0625 C-57.37078613 111.09093018 -57.80407227 112.11936035 -58.25048828 113.17895508 C-60.30904008 118.02374874 -62.41654034 122.8391616 -64.6171875 127.62109375 C-72.58793575 145.12882676 -70.4558836 158.37114255 -64.1875 176.3125 C-61.98944353 181.8968865 -59.15212366 187.10437735 -56.1875 192.3125 C-55.69797852 193.17456055 -55.20845703 194.03662109 -54.70410156 194.92480469 C-51.38842186 200.7543743 -51.38842186 200.7543743 -48.05444336 206.57348633 C-44.02322537 213.64265557 -40.41118151 220.82297937 -37.16625977 228.28637695 C-33.68206625 236.08300953 -28.38906043 240.10739248 -21.3125 244.5625 C-20.55855957 245.04066162 -19.80461914 245.51882324 -19.02783203 246.01147461 C-17.48229195 246.98810921 -15.93460744 247.96135874 -14.38476562 248.93115234 C-12.42682512 250.16204427 -10.48549786 251.41481382 -8.546875 252.67578125 C18.7712175 270.13081859 59.65802571 285.73719277 92.44580078 279.12841797 C105.60165416 276.17401047 113.096548 270.47985442 122.8125 261.3125 C124.18085771 260.11735213 125.55517299 258.9289628 126.9375 257.75 C129.80602662 255.2654952 132.4747929 252.65337595 135.125 249.9375 C140.03030861 244.97329403 145.36115073 240.65843678 150.8125 236.3125 C168.98545448 221.80020303 168.98545448 221.80020303 185.3125 205.3125 C186.47880208 203.97884774 187.64546037 202.6455069 188.8125 201.3125 C189.33199219 200.70148438 189.85148437 200.09046875 190.38671875 199.4609375 C196.29627751 192.96471552 203.45707038 188.4998422 212.34375 187.8359375 C222.00791185 187.52737046 229.09876081 188.59226551 237.375 194.125 C238.07753906 194.58519531 238.78007813 195.04539062 239.50390625 195.51953125 C241.49066153 197.06254424 242.88817682 198.52207579 244.5390625 200.38671875 C248.12512324 204.03951268 251.69647963 204.57847575 256.625 205.3125 C277.48545553 209.10347303 293.77856813 217.87628737 310.37890625 230.875 C314.84083464 234.36134582 319.40184985 237.69624184 324 241 C324.75055664 241.54068115 325.50111328 242.0813623 326.27441406 242.63842773 C329.73667684 245.12631516 333.20995172 247.59643883 336.70703125 250.03515625 C351.5052758 260.38112789 362.80440759 272.20444345 373.26953125 286.828125 C375.10569544 289.3838398 377.05384563 291.75486009 379.125 294.125 C384.34835145 300.97876173 386.06731745 310.62570043 388.56030273 318.74926758 C388.93650757 319.9329895 388.93650757 319.9329895 389.3203125 321.140625 C389.54219238 321.84993164 389.76407227 322.55923828 389.99267578 323.29003906 C390.89496922 325.51594701 392.05422758 327.21378618 393.5 329.125 C397.36465689 334.52978006 399.44844314 340.64747004 401.65698242 346.86645508 C403.36112524 351.44904275 405.17474446 354.97484886 408.33203125 358.73046875 C412.35019596 363.6183684 413.93058163 368.57865498 415.5625 374.625 C415.99671265 376.1555603 415.99671265 376.1555603 416.43969727 377.71704102 C417.00104015 379.70951383 417.55364254 381.70447618 418.09619141 383.70214844 C418.66721863 385.78306971 419.2847915 387.85120235 419.91796875 389.9140625 C424.64328297 406.02006308 421.99526765 425.85558088 415.8125 441.3125 C415.4825 441.6425 415.1525 441.9725 414.8125 442.3125 C414.55820769 447.36020238 415.21780021 451.77148704 416.3125 456.6875 C417.51685944 462.60089086 418.13958292 468.33877849 418.1875 474.375 C418.20780273 475.40923096 418.20780273 475.40923096 418.22851562 476.46435547 C418.16624177 483.57914322 415.70684369 489.13025374 410.8125 494.3125 C405.1659352 498.3966178 399.53885832 498.07493356 392.8125 497.3125 C389.25 495.625 389.25 495.625 386.8125 493.3125 C386.090625 492.631875 385.36875 491.95125 384.625 491.25 C378.60934105 481.50048377 378.52069178 468.51481036 377.421875 457.33984375 C376.62417421 450.07928934 375.28187551 444.37005187 371.96875 437.859375 C370.79550404 435.27506295 370.26347266 433.04256145 369.8125 430.25 C369.21514448 426.66586685 368.2707843 424.04377191 366.5 420.875 C362.13821118 412.74503858 360.02604591 403.03753744 358.39331055 393.98950195 C357.33650078 388.2982866 355.35001397 384.31699306 352 379.625 C351.57396484 379.00044922 351.14792969 378.37589844 350.70898438 377.73242188 C349.44302321 375.89955526 348.13349098 374.10595307 346.8125 372.3125 C346.42610352 371.74378174 346.03970703 371.17506348 345.64160156 370.58911133 C342.46550977 366.23681126 339.2657704 365.22901792 334.1875 364.375 C319.13969344 361.16170192 307.64115634 350.70224571 299.0625 338.1875 C296.8125 334.65732759 296.8125 334.65732759 296.8125 332.3125 C296.131875 332.10625 295.45125 331.9 294.75 331.6875 C291.9427387 330.3734628 290.75431649 329.32690804 288.625 327.1875 C284.87576036 323.85407153 282.26513817 323.9861675 277.42016602 324.13085938 C273.68384515 324.39111803 270.05863057 324.96520306 266.375 325.625 C259.71004462 326.73593552 253.06077898 327.50884029 246.328125 328.0390625 C245.19859657 328.12884621 245.19859657 328.12884621 244.04624939 328.22044373 C240.27814241 328.51564863 236.50960892 328.79192828 232.73852539 329.04614258 C218.58529306 330.06984424 205.09519526 332.94411281 191.875 338.1875 C190.53501953 338.7139209 190.53501953 338.7139209 189.16796875 339.25097656 C177.51366547 343.92893187 169.25293956 350.18011684 160.31835938 358.85351562 C158.98020437 360.150016 157.62413005 361.42796381 156.265625 362.703125 C145.59682669 372.9304558 139.66207804 384.21461806 133.96240234 397.64208984 C132.84160869 400.2449011 131.67349564 402.82051041 130.48828125 405.39453125 C124.4397653 418.69231505 120.42356648 432.17989777 116.8125 446.3125 C116.45952111 447.66977846 116.1058133 449.02686752 115.75146484 450.38378906 C114.81746195 453.96362363 113.89400783 457.54602414 112.97879028 461.13070679 C112.62274867 462.52470294 112.26510692 463.91829155 111.9057312 465.31143188 C104.59755712 493.7642045 106.11810748 525.33308678 120.8125 551.3125 C121.87864039 553.26632148 122.93505628 555.2250552 123.98706055 557.18652344 C124.68359045 558.48249598 125.38649096 559.77507295 126.09692383 561.06347656 C131.07804047 570.22010501 132.28991502 579.29461736 130.125 589.5625 C126.08057071 601.11801226 119.67345822 608.67969306 108.8125 614.3125 C107.2552936 614.95057482 105.69298397 615.5763883 104.125 616.1875 C98.978939 618.36711459 96.22855405 622.02426194 92.8125 626.3125 C85.47394951 635.10726416 74.64056665 640.87604771 63.8125 644.3125 C56.60037037 646.68475421 49.92017344 649.60317387 43.26171875 653.23120117 C32.32525574 658.98055001 20.13077555 662.15144825 8 664.125 C7.35739227 664.23056213 6.71478455 664.33612427 6.05270386 664.44488525 C-12.30979956 667.3484818 -30.96235245 666.81473659 -49.49609375 666.5859375 C-50.44183258 666.57518692 -51.38757141 666.56443634 -52.36196899 666.55335999 C-57.34476506 666.46550585 -62.21781925 666.14789495 -67.16404724 665.54336548 C-69.95770231 665.22462391 -72.74116315 665.11571601 -75.55078125 665.03125 C-77.25331055 664.97517578 -77.25331055 664.97517578 -78.99023438 664.91796875 C-80.72756836 664.86576172 -80.72756836 664.86576172 -82.5 664.8125 C-107.24826551 664.06128789 -107.24826551 664.06128789 -116.0625 661 C-117.27679688 660.59136719 -118.49109375 660.18273437 -119.7421875 659.76171875 C-123.24719515 658.28739013 -126.05250905 656.44714003 -129.1875 654.3125 C-140.23796105 649.06241555 -151.92605132 647.14366834 -163.89038086 645.24389648 C-187.97356597 641.37635554 -208.99226904 633.77069426 -224.8203125 614.3203125 C-230.03303485 606.66505739 -231.65270835 598.46458498 -230.1875 589.3125 C-228.6801453 585.28154178 -226.94937807 581.63182135 -224.1875 578.3125 C-222.140625 577.58203125 -222.140625 577.58203125 -220.1875 577.3125 C-219.3625 576.961875 -218.5375 576.61125 -217.6875 576.25 C-209.25620564 573.99161758 -201.12356355 574.80784241 -193.1875 578.3125 C-190.16507275 580.1240612 -187.34644475 582.1761392 -184.5 584.25 C-173.33539799 592.00072815 -163.27424904 594.16401515 -149.796875 595.7578125 C-142.55334968 596.87099496 -136.01059958 599.33431089 -129.5625 602.75 C-125.85379994 604.49606682 -123.72454147 604.28956726 -119.8125 603.125 C-118.26109392 602.54630091 -116.7177448 601.94503801 -115.1875 601.3125 C-111.76014792 600.17004931 -108.59303991 599.84185 -105 599.4375 C-90.23686964 597.65562685 -76.66892475 594.80098675 -62.89453125 588.90234375 C-55.89199472 585.93516726 -49.07168889 583.72031507 -41.67260742 581.90576172 C-29.98411748 579.02595258 -20.4063318 575.69109438 -10.73876953 568.44677734 C-9.1875 567.3125 -9.1875 567.3125 -6.43359375 565.64453125 C0.8558734 560.97302759 3.70563596 553.45168593 5.8125 545.3125 C7.52013521 537.0856116 8.33391042 528.80818721 8.9375 520.4375 C9.0202417 519.29200684 9.1029834 518.14651367 9.18823242 516.96630859 C9.89836097 506.69754322 10.47788519 496.88936136 8.76576233 486.6875 C6.70319485 474.35510166 6.13911206 462.14727073 5.80395508 449.66699219 C5.32194601 432.77639615 3.46503428 416.14234698 -3 400.375 C-3.34474365 399.5072998 -3.6894873 398.63959961 -4.04467773 397.74560547 C-8.24466885 387.39249735 -12.54969016 377.70555995 -21.1875 370.3125 C-21.75726563 369.7659375 -22.32703125 369.219375 -22.9140625 368.65625 C-42.55280656 350.27104279 -69.30735689 342.23894184 -94.55664062 335.01904297 C-98.9177293 333.75111248 -103.04705046 332.28619441 -107.1328125 330.3046875 C-108.75765738 329.52006659 -110.40997865 328.79236681 -112.0703125 328.0859375 C-117.44908806 325.79463343 -122.76252125 323.35848694 -128.07421875 320.91650391 C-129.30777968 320.35112181 -130.54279361 319.7888983 -131.77929688 319.22998047 C-145.80801768 312.885615 -158.59469859 306.30620957 -166.1875 292.3125 C-167.59383066 288.52995548 -167.33732438 284.54681294 -167.3125 280.5625 C-167.3120166 279.84167236 -167.3115332 279.12084473 -167.31103516 278.37817383 C-167.28793797 274.86222472 -167.17000646 271.46423327 -166.5625 268 C-166.21519662 264.58485008 -166.44069604 262.5717623 -167.140625 259.28125 C-172.87182684 229.09409867 -167.25524136 175.33553618 -151.12890625 148.83203125 C-149.10029997 145.41041705 -148.3777562 142.26087005 -147.75 138.3125 C-143.4235245 114.33996014 -131.91807919 93.44447399 -116.859375 74.62109375 C-114.93291176 71.9609541 -113.39456667 69.18997448 -111.8125 66.3125 C-106.73931275 57.43442231 -100.27978281 50.18004899 -90.1875 47.3125 C-89.0325 47.27125 -87.8775 47.23 -86.6875 47.1875 C-81.70297562 45.9413689 -79.79576635 42.89801886 -76.5390625 39.05859375 C-65.93014268 26.66977211 -51.67770887 17.93825329 -36.34375 12.69140625 C-32.45364602 10.991893 -29.31712788 8.72821637 -25.9375 6.1875 C-18.33455789 0.47776009 -9.40491217 -4.97907115 0 0 Z " fill="#808080" transform="translate(443.1875,150.6875)"/>
<path d="M0 0 C1.22334816 3.67004447 0.35234721 4.93683286 -1.29785156 8.29125977 C-1.65331055 8.97889404 -2.00876953 9.66652832 -2.375 10.375 C-2.92365723 11.44802368 -2.92365723 11.44802368 -3.48339844 12.54272461 C-9.30773682 23.66810164 -16.95844476 33.31856881 -24.81640625 43.05078125 C-36.46213697 57.48426518 -46.21306914 71.60557447 -53.9375 88.5 C-61.09842045 104.15564986 -70.84119878 117.41515623 -82.375 130.125 C-82.8994873 130.70660889 -83.42397461 131.28821777 -83.96435547 131.88745117 C-85.2674888 133.29836405 -86.62931374 134.65461872 -88 136 C-88.66 136 -89.32 136 -90 136 C-90.33 136.99 -90.66 137.98 -91 139 C-92.99191762 140.65469197 -94.96346495 142.18339146 -97.0625 143.6875 C-97.63033203 144.10322266 -98.19816406 144.51894531 -98.78320312 144.94726562 C-100.18403173 145.97140082 -101.59140348 146.98657535 -103 148 C-103.33 147.34 -103.66 146.68 -104 146 C-103.26245117 143.96313477 -103.26245117 143.96313477 -102.04296875 141.44140625 C-101.37092407 140.04088013 -101.37092407 140.04088013 -100.68530273 138.61206055 C-100.19102783 137.60570557 -99.69675293 136.59935059 -99.1875 135.5625 C-98.68484619 134.52714111 -98.18219238 133.49178223 -97.66430664 132.42504883 C-92.98120422 122.83899037 -88.08141488 113.3801521 -83 104 C-82.57831543 103.2172168 -82.15663086 102.43443359 -81.72216797 101.62792969 C-71.02649847 81.82533735 -58.176121 64.67424938 -43.47753906 47.71582031 C-41.55027936 45.47775336 -39.65140007 43.21658936 -37.75292969 40.95410156 C-33.04150273 35.34112586 -28.21137735 29.86424786 -23.25 24.46875 C-21.37119799 22.40728668 -19.55281246 20.3148187 -17.75 18.1875 C-12.20742377 11.78602576 -6.02100859 5.94585037 0 0 Z " fill="#404040" transform="translate(958,728)"/>
<path d="M0 0 C10.42709113 5.14295597 18.83990771 11.75951272 27 20 C27.55042969 20.49242187 28.10085938 20.98484375 28.66796875 21.4921875 C49.37419065 40.33538172 58.51009031 72.78319467 59.91796875 99.92578125 C60.1726803 109.61253878 60.07417735 119.31129742 60 129 C57.51590141 126.51590141 57.20815511 124.72585922 56.30078125 121.33984375 C55.82294189 119.57870239 55.82294189 119.57870239 55.33544922 117.78198242 C54.99787598 116.51330322 54.66030273 115.24462402 54.3125 113.9375 C53.95673657 112.62387577 53.60011909 111.31048257 53.24267578 109.99731445 C52.15564702 105.99985678 51.07755961 102.00001847 50 98 C42.62539881 70.66111242 33.74851192 49.22603642 17.41748047 26.02783203 C15.93977158 23.91383788 14.48479387 21.78567402 13.03515625 19.65234375 C12.54781006 18.9363501 12.06046387 18.22035645 11.55834961 17.48266602 C10.63417124 16.12370982 9.71167852 14.763605 8.79125977 13.40209961 C6.71145484 10.35775895 4.58632758 7.45968868 2.1796875 4.6640625 C0 2 0 2 0 0 Z " fill="#0E182A" transform="translate(915,231)"/>
</svg>
